<?xml version="1.0" encoding="UTF-8" standalone="no"?> <svg id="Layer_1" data-name="Layer 1" xmlns="http://www.w3.org/2000/svg" viewBox="0 0 512 512"><defs><style>.cls-1{fill:#fff;}</style></defs><title>document-download-glyph</title><path class="cls-1" d="M320,435.2A102.4,102.4,0,0,1,422.4,332.8V153.6L268.94,0H76.8a64,64,0,0,0-64,64V448a64,64,0,0,0,64,64h278A102.05,102.05,0,0,1,320,435.2ZM256,25.6,396.8,166.4H320a64,64,0,0,1-64-64ZM128,243.2H230.4a12.8,12.8,0,1,1,0,25.6H128a12.8,12.8,0,1,1,0-25.6Zm0,51.2H307.2a12.8,12.8,0,0,1,0,25.6H128a12.8,12.8,0,0,1,0-25.6Zm178.82,76.8H128a12.8,12.8,0,1,1,0-25.6H306.82a12.8,12.8,0,1,1,0,25.6ZM422.4,358.4a76.8,76.8,0,1,0,76.8,76.8A76.89,76.89,0,0,0,422.4,358.4Zm34.65,85.85-25.6,25.6-.07.06c-.28.28-.58.55-.88.8l-.13.1q-.38.3-.79.58l-.33.21-.66.39-.35.19c-.31.16-.62.31-.95.44h0q-.57.24-1.16.41h0q-.59.18-1.19.3h0c-.38.07-.75.13-1.13.17h-.1q-.62.06-1.24.06t-1.24-.06l-.22,0c-.34,0-.67-.08-1-.15l-.14,0c-.36-.07-.72-.16-1.07-.27h0a12.71,12.71,0,0,1-3.37-1.58l-.09-.07c-.32-.21-.63-.44-.93-.69a12.88,12.88,0,0,1-1-.87l-25.6-25.6a12.8,12.8,0,0,1,18.1-18.1l3.75,3.75V409.6a12.8,12.8,0,1,1,25.6,0v20.3l3.75-3.75a12.8,12.8,0,0,1,18.1,18.1Z"/></svg>