<svg width="77" height="120" viewBox="0 0 77 120" fill="none" xmlns="http://www.w3.org/2000/svg">
<path d="M50.541 39.5898C50.0996 40.0234 49.584 40.2402 48.9941 40.2402C48.2402 40.2402 47.6367 39.9824 47.1836 39.4668C46.7305 38.9473 46.5039 38.248 46.5039 37.3691C46.5039 36.8105 46.625 36.2988 46.8672 35.834C47.1133 35.3652 47.4551 35.002 47.8926 34.7441C48.3301 34.4824 48.8223 34.3516 49.3691 34.3516C49.9316 34.3516 50.4316 34.4922 50.8691 34.7734C51.3066 35.0547 51.6465 35.459 51.8887 35.9863C52.1309 36.5137 52.2539 37.1172 52.2578 37.7969V38.4238C52.2578 39.8457 51.9043 40.9629 51.1973 41.7754C50.4902 42.5879 49.4883 43.0215 48.1914 43.0762L47.7754 43.082V41.6699L48.1504 41.6641C49.623 41.5977 50.4199 40.9062 50.541 39.5898ZM49.4102 38.9453C49.6836 38.9453 49.918 38.875 50.1133 38.7344C50.3125 38.5938 50.4629 38.4238 50.5645 38.2246V37.5273C50.5645 36.9531 50.4551 36.5078 50.2363 36.1914C50.0176 35.875 49.7246 35.7168 49.3574 35.7168C49.0176 35.7168 48.7383 35.873 48.5195 36.1855C48.3008 36.4941 48.1914 36.8828 48.1914 37.3516C48.1914 37.8164 48.2969 38.1992 48.5078 38.5C48.7227 38.7969 49.0234 38.9453 49.4102 38.9453ZM53.7227 38.8047L54.2148 34.4688H58.9961V35.8809H55.6035L55.3926 37.7148C55.7949 37.5 56.2227 37.3926 56.6758 37.3926C57.4883 37.3926 58.125 37.6445 58.5859 38.1484C59.0469 38.6523 59.2773 39.3574 59.2773 40.2637C59.2773 40.8145 59.1602 41.3086 58.9258 41.7461C58.6953 42.1797 58.3633 42.5176 57.9297 42.7598C57.4961 42.998 56.9844 43.1172 56.3945 43.1172C55.8789 43.1172 55.4004 43.0137 54.959 42.8066C54.5176 42.5957 54.168 42.3008 53.9102 41.9219C53.6562 41.543 53.5215 41.1113 53.5059 40.627H55.1816C55.2168 40.9824 55.3398 41.2598 55.5508 41.459C55.7656 41.6543 56.0449 41.752 56.3887 41.752C56.7715 41.752 57.0664 41.6152 57.2734 41.3418C57.4805 41.0645 57.584 40.6738 57.584 40.1699C57.584 39.6855 57.4648 39.3145 57.2266 39.0566C56.9883 38.7988 56.6504 38.6699 56.2129 38.6699C55.8105 38.6699 55.4844 38.7754 55.2344 38.9863L55.0703 39.1387L53.7227 38.8047ZM60.3379 36.1094C60.3379 35.5859 60.5078 35.1621 60.8477 34.8379C61.1875 34.5098 61.6328 34.3457 62.1836 34.3457C62.7422 34.3457 63.1914 34.5078 63.5312 34.832C63.8711 35.1523 64.041 35.5879 64.041 36.1387V36.5605C64.041 37.0879 63.8711 37.5117 63.5312 37.832C63.1914 38.1523 62.7461 38.3125 62.1953 38.3125C61.6406 38.3125 61.1914 38.1523 60.8477 37.832C60.5078 37.5078 60.3379 37.0723 60.3379 36.5254V36.1094ZM61.4629 36.5605C61.4629 36.7949 61.5293 36.9844 61.6621 37.1289C61.7988 37.2695 61.9766 37.3398 62.1953 37.3398C62.4141 37.3398 62.5879 37.2676 62.7168 37.123C62.8457 36.9785 62.9102 36.7852 62.9102 36.543V36.1094C62.9102 35.875 62.8457 35.6855 62.7168 35.541C62.5879 35.3965 62.4102 35.3242 62.1836 35.3242C61.9688 35.3242 61.7949 35.3965 61.6621 35.541C61.5293 35.6816 61.4629 35.8789 61.4629 36.1328V36.5605ZM64.416 40.9082C64.416 40.3809 64.5879 39.957 64.9316 39.6367C65.2754 39.3125 65.7207 39.1504 66.2676 39.1504C66.8223 39.1504 67.2695 39.3105 67.6094 39.6309C67.9531 39.9473 68.125 40.3848 68.125 40.9434V41.3652C68.125 41.8887 67.957 42.3125 67.6211 42.6367C67.2852 42.957 66.8379 43.1172 66.2793 43.1172C65.7168 43.1172 65.2656 42.9551 64.9258 42.6309C64.5859 42.3066 64.416 41.877 64.416 41.3418V40.9082ZM65.541 41.3652C65.541 41.5801 65.6113 41.7637 65.752 41.916C65.8926 42.0684 66.0684 42.1445 66.2793 42.1445C66.7559 42.1445 66.9941 41.8809 66.9941 41.3535V40.9082C66.9941 40.6738 66.9277 40.4863 66.7949 40.3457C66.6621 40.2012 66.4863 40.1289 66.2676 40.1289C66.0488 40.1289 65.873 40.2012 65.7402 40.3457C65.6074 40.4863 65.541 40.6797 65.541 40.9258V41.3652ZM62.5293 42.3613L61.7031 41.916L65.8691 35.248L66.6953 35.6934L62.5293 42.3613Z" fill="black"/>
<path d="M50.6934 66H49V59.4727L46.9785 60.0996V58.7227L50.5117 57.457H50.6934V66ZM59.2129 62.4727C59.2129 63.6523 58.9688 64.5547 58.4805 65.1797C57.9922 65.8047 57.2773 66.1172 56.3359 66.1172C55.4062 66.1172 54.6953 65.8105 54.2031 65.1973C53.7109 64.584 53.459 63.7051 53.4473 62.5605V60.9902C53.4473 59.7988 53.6934 58.8945 54.1855 58.2773C54.6816 57.6602 55.3945 57.3516 56.3242 57.3516C57.2539 57.3516 57.9648 57.6582 58.457 58.2715C58.9492 58.8809 59.2012 59.7578 59.2129 60.9023V62.4727ZM57.5195 60.75C57.5195 60.043 57.4219 59.5293 57.2266 59.209C57.0352 58.8848 56.7344 58.7227 56.3242 58.7227C55.9258 58.7227 55.6309 58.877 55.4395 59.1855C55.252 59.4902 55.1523 59.9688 55.1406 60.6211V62.6953C55.1406 63.3906 55.2344 63.9082 55.4219 64.248C55.6133 64.584 55.918 64.752 56.3359 64.752C56.75 64.752 57.0488 64.5898 57.2324 64.2656C57.416 63.9414 57.5117 63.4453 57.5195 62.7773V60.75ZM60.3379 59.1094C60.3379 58.5859 60.5078 58.1621 60.8477 57.8379C61.1875 57.5098 61.6328 57.3457 62.1836 57.3457C62.7422 57.3457 63.1914 57.5078 63.5312 57.832C63.8711 58.1523 64.041 58.5879 64.041 59.1387V59.5605C64.041 60.0879 63.8711 60.5117 63.5312 60.832C63.1914 61.1523 62.7461 61.3125 62.1953 61.3125C61.6406 61.3125 61.1914 61.1523 60.8477 60.832C60.5078 60.5078 60.3379 60.0723 60.3379 59.5254V59.1094ZM61.4629 59.5605C61.4629 59.7949 61.5293 59.9844 61.6621 60.1289C61.7988 60.2695 61.9766 60.3398 62.1953 60.3398C62.4141 60.3398 62.5879 60.2676 62.7168 60.123C62.8457 59.9785 62.9102 59.7852 62.9102 59.543V59.1094C62.9102 58.875 62.8457 58.6855 62.7168 58.541C62.5879 58.3965 62.4102 58.3242 62.1836 58.3242C61.9688 58.3242 61.7949 58.3965 61.6621 58.541C61.5293 58.6816 61.4629 58.8789 61.4629 59.1328V59.5605ZM64.416 63.9082C64.416 63.3809 64.5879 62.957 64.9316 62.6367C65.2754 62.3125 65.7207 62.1504 66.2676 62.1504C66.8223 62.1504 67.2695 62.3105 67.6094 62.6309C67.9531 62.9473 68.125 63.3848 68.125 63.9434V64.3652C68.125 64.8887 67.957 65.3125 67.6211 65.6367C67.2852 65.957 66.8379 66.1172 66.2793 66.1172C65.7168 66.1172 65.2656 65.9551 64.9258 65.6309C64.5859 65.3066 64.416 64.877 64.416 64.3418V63.9082ZM65.541 64.3652C65.541 64.5801 65.6113 64.7637 65.752 64.916C65.8926 65.0684 66.0684 65.1445 66.2793 65.1445C66.7559 65.1445 66.9941 64.8809 66.9941 64.3535V63.9082C66.9941 63.6738 66.9277 63.4863 66.7949 63.3457C66.6621 63.2012 66.4863 63.1289 66.2676 63.1289C66.0488 63.1289 65.873 63.2012 65.7402 63.3457C65.6074 63.4863 65.541 63.6797 65.541 63.9258V64.3652ZM62.5293 65.3613L61.7031 64.916L65.8691 58.248L66.6953 58.6934L62.5293 65.3613Z" fill="black"/>
<path d="M46.832 84.8047L47.3242 80.4688H52.1055V81.8809H48.7129L48.502 83.7148C48.9043 83.5 49.332 83.3926 49.7852 83.3926C50.5977 83.3926 51.2344 83.6445 51.6953 84.1484C52.1562 84.6523 52.3867 85.3574 52.3867 86.2637C52.3867 86.8145 52.2695 87.3086 52.0352 87.7461C51.8047 88.1797 51.4727 88.5176 51.0391 88.7598C50.6055 88.998 50.0938 89.1172 49.5039 89.1172C48.9883 89.1172 48.5098 89.0137 48.0684 88.8066C47.627 88.5957 47.2773 88.3008 47.0195 87.9219C46.7656 87.543 46.6309 87.1113 46.6152 86.627H48.291C48.3262 86.9824 48.4492 87.2598 48.6602 87.459C48.875 87.6543 49.1543 87.752 49.498 87.752C49.8809 87.752 50.1758 87.6152 50.3828 87.3418C50.5898 87.0645 50.6934 86.6738 50.6934 86.1699C50.6934 85.6855 50.5742 85.3145 50.3359 85.0566C50.0977 84.7988 49.7598 84.6699 49.3223 84.6699C48.9199 84.6699 48.5938 84.7754 48.3438 84.9863L48.1797 85.1387L46.832 84.8047ZM53.4473 82.1094C53.4473 81.5859 53.6172 81.1621 53.957 80.8379C54.2969 80.5098 54.7422 80.3457 55.293 80.3457C55.8516 80.3457 56.3008 80.5078 56.6406 80.832C56.9805 81.1523 57.1504 81.5879 57.1504 82.1387V82.5605C57.1504 83.0879 56.9805 83.5117 56.6406 83.832C56.3008 84.1523 55.8555 84.3125 55.3047 84.3125C54.75 84.3125 54.3008 84.1523 53.957 83.832C53.6172 83.5078 53.4473 83.0723 53.4473 82.5254V82.1094ZM54.5723 82.5605C54.5723 82.7949 54.6387 82.9844 54.7715 83.1289C54.9082 83.2695 55.0859 83.3398 55.3047 83.3398C55.5234 83.3398 55.6973 83.2676 55.8262 83.123C55.9551 82.9785 56.0195 82.7852 56.0195 82.543V82.1094C56.0195 81.875 55.9551 81.6855 55.8262 81.541C55.6973 81.3965 55.5195 81.3242 55.293 81.3242C55.0781 81.3242 54.9043 81.3965 54.7715 81.541C54.6387 81.6816 54.5723 81.8789 54.5723 82.1328V82.5605ZM57.5254 86.9082C57.5254 86.3809 57.6973 85.957 58.041 85.6367C58.3848 85.3125 58.8301 85.1504 59.377 85.1504C59.9316 85.1504 60.3789 85.3105 60.7188 85.6309C61.0625 85.9473 61.2344 86.3848 61.2344 86.9434V87.3652C61.2344 87.8887 61.0664 88.3125 60.7305 88.6367C60.3945 88.957 59.9473 89.1172 59.3887 89.1172C58.8262 89.1172 58.375 88.9551 58.0352 88.6309C57.6953 88.3066 57.5254 87.877 57.5254 87.3418V86.9082ZM58.6504 87.3652C58.6504 87.5801 58.7207 87.7637 58.8613 87.916C59.002 88.0684 59.1777 88.1445 59.3887 88.1445C59.8652 88.1445 60.1035 87.8809 60.1035 87.3535V86.9082C60.1035 86.6738 60.0371 86.4863 59.9043 86.3457C59.7715 86.2012 59.5957 86.1289 59.377 86.1289C59.1582 86.1289 58.9824 86.2012 58.8496 86.3457C58.7168 86.4863 58.6504 86.6797 58.6504 86.9258V87.3652ZM55.6387 88.3613L54.8125 87.916L58.9785 81.248L59.8047 81.6934L55.6387 88.3613Z" fill="black"/>
<path d="M50.6934 112H49V105.473L46.9785 106.1V104.723L50.5117 103.457H50.6934V112ZM53.4473 105.109C53.4473 104.586 53.6172 104.162 53.957 103.838C54.2969 103.51 54.7422 103.346 55.293 103.346C55.8516 103.346 56.3008 103.508 56.6406 103.832C56.9805 104.152 57.1504 104.588 57.1504 105.139V105.561C57.1504 106.088 56.9805 106.512 56.6406 106.832C56.3008 107.152 55.8555 107.312 55.3047 107.312C54.75 107.312 54.3008 107.152 53.957 106.832C53.6172 106.508 53.4473 106.072 53.4473 105.525V105.109ZM54.5723 105.561C54.5723 105.795 54.6387 105.984 54.7715 106.129C54.9082 106.27 55.0859 106.34 55.3047 106.34C55.5234 106.34 55.6973 106.268 55.8262 106.123C55.9551 105.979 56.0195 105.785 56.0195 105.543V105.109C56.0195 104.875 55.9551 104.686 55.8262 104.541C55.6973 104.396 55.5195 104.324 55.293 104.324C55.0781 104.324 54.9043 104.396 54.7715 104.541C54.6387 104.682 54.5723 104.879 54.5723 105.133V105.561ZM57.5254 109.908C57.5254 109.381 57.6973 108.957 58.041 108.637C58.3848 108.312 58.8301 108.15 59.377 108.15C59.9316 108.15 60.3789 108.311 60.7188 108.631C61.0625 108.947 61.2344 109.385 61.2344 109.943V110.365C61.2344 110.889 61.0664 111.312 60.7305 111.637C60.3945 111.957 59.9473 112.117 59.3887 112.117C58.8262 112.117 58.375 111.955 58.0352 111.631C57.6953 111.307 57.5254 110.877 57.5254 110.342V109.908ZM58.6504 110.365C58.6504 110.58 58.7207 110.764 58.8613 110.916C59.002 111.068 59.1777 111.145 59.3887 111.145C59.8652 111.145 60.1035 110.881 60.1035 110.354V109.908C60.1035 109.674 60.0371 109.486 59.9043 109.346C59.7715 109.201 59.5957 109.129 59.377 109.129C59.1582 109.129 58.9824 109.201 58.8496 109.346C58.7168 109.486 58.6504 109.68 58.6504 109.926V110.365ZM55.6387 111.361L54.8125 110.916L58.9785 104.248L59.8047 104.693L55.6387 111.361Z" fill="black"/>
<rect x="14" y="27" width="24" height="23" fill="white" stroke="black" stroke-width="2"/>
<rect x="14" y="50" width="24" height="23" fill="#00FF38" stroke="black" stroke-width="2"/>
<rect x="14" y="73" width="24" height="23" fill="#FFF500" stroke="black" stroke-width="2"/>
<rect x="14" y="96" width="24" height="23" fill="#FF0000" stroke="black" stroke-width="2"/>
<path d="M3.7793 12.4912V17H1.14258V4.20312H6.13477C7.0957 4.20312 7.93945 4.37891 8.66602 4.73047C9.39844 5.08203 9.96094 5.58301 10.3535 6.2334C10.7461 6.87793 10.9424 7.61328 10.9424 8.43945C10.9424 9.69336 10.5117 10.6836 9.65039 11.4102C8.79492 12.1309 7.6084 12.4912 6.09082 12.4912H3.7793ZM3.7793 10.3555H6.13477C6.83203 10.3555 7.3623 10.1914 7.72559 9.86328C8.09473 9.53516 8.2793 9.06641 8.2793 8.45703C8.2793 7.83008 8.09473 7.32324 7.72559 6.93652C7.35645 6.5498 6.84668 6.35059 6.19629 6.33887H3.7793V10.3555ZM16.8486 17.1758C15.4541 17.1758 14.3174 16.748 13.4385 15.8926C12.5654 15.0371 12.1289 13.8975 12.1289 12.4736V12.2275C12.1289 11.2725 12.3135 10.4199 12.6826 9.66992C13.0518 8.91406 13.5732 8.33398 14.2471 7.92969C14.9268 7.51953 15.7002 7.31445 16.5674 7.31445C17.8682 7.31445 18.8906 7.72461 19.6348 8.54492C20.3848 9.36523 20.7598 10.5283 20.7598 12.0342V13.0713H14.7041C14.7861 13.6924 15.0322 14.1904 15.4424 14.5654C15.8584 14.9404 16.3828 15.1279 17.0156 15.1279C17.9941 15.1279 18.7588 14.7734 19.3096 14.0645L20.5576 15.4619C20.1768 16.001 19.6611 16.4229 19.0107 16.7275C18.3604 17.0264 17.6396 17.1758 16.8486 17.1758ZM16.5586 9.37109C16.0547 9.37109 15.6445 9.54102 15.3281 9.88086C15.0176 10.2207 14.8184 10.707 14.7305 11.3398H18.2637V11.1377C18.252 10.5752 18.0996 10.1416 17.8066 9.83691C17.5137 9.52637 17.0977 9.37109 16.5586 9.37109ZM27.5537 9.87207C27.208 9.8252 26.9033 9.80176 26.6396 9.80176C25.6787 9.80176 25.0488 10.127 24.75 10.7773V17H22.21V7.49023H24.6094L24.6797 8.62402C25.1895 7.75098 25.8955 7.31445 26.7979 7.31445C27.0791 7.31445 27.3428 7.35254 27.5889 7.42871L27.5537 9.87207ZM32.5635 15.1279C33.0322 15.1279 33.4131 14.999 33.7061 14.7412C33.999 14.4834 34.1514 14.1406 34.1631 13.7129H36.5449C36.5391 14.3574 36.3633 14.9492 36.0176 15.4883C35.6719 16.0215 35.1973 16.4375 34.5938 16.7363C33.9961 17.0293 33.334 17.1758 32.6074 17.1758C31.248 17.1758 30.1758 16.7451 29.3906 15.8838C28.6055 15.0166 28.2129 13.8213 28.2129 12.2979V12.1309C28.2129 10.666 28.6025 9.49707 29.3818 8.62402C30.1611 7.75098 31.2305 7.31445 32.5898 7.31445C33.7793 7.31445 34.7314 7.6543 35.4463 8.33398C36.167 9.00781 36.5332 9.90723 36.5449 11.0322H34.1631C34.1514 10.54 33.999 10.1416 33.7061 9.83691C33.4131 9.52637 33.0264 9.37109 32.5459 9.37109C31.9541 9.37109 31.5059 9.58789 31.2012 10.0215C30.9023 10.4492 30.7529 11.1465 30.7529 12.1133V12.377C30.7529 13.3555 30.9023 14.0586 31.2012 14.4863C31.5 14.9141 31.9541 15.1279 32.5635 15.1279ZM42.3721 17.1758C40.9775 17.1758 39.8408 16.748 38.9619 15.8926C38.0889 15.0371 37.6523 13.8975 37.6523 12.4736V12.2275C37.6523 11.2725 37.8369 10.4199 38.2061 9.66992C38.5752 8.91406 39.0967 8.33398 39.7705 7.92969C40.4502 7.51953 41.2236 7.31445 42.0908 7.31445C43.3916 7.31445 44.4141 7.72461 45.1582 8.54492C45.9082 9.36523 46.2832 10.5283 46.2832 12.0342V13.0713H40.2275C40.3096 13.6924 40.5557 14.1904 40.9658 14.5654C41.3818 14.9404 41.9062 15.1279 42.5391 15.1279C43.5176 15.1279 44.2822 14.7734 44.833 14.0645L46.0811 15.4619C45.7002 16.001 45.1846 16.4229 44.5342 16.7275C43.8838 17.0264 43.1631 17.1758 42.3721 17.1758ZM42.082 9.37109C41.5781 9.37109 41.168 9.54102 40.8516 9.88086C40.541 10.2207 40.3418 10.707 40.2539 11.3398H43.7871V11.1377C43.7754 10.5752 43.623 10.1416 43.3301 9.83691C43.0371 9.52637 42.6211 9.37109 42.082 9.37109ZM50.0713 7.49023L50.1504 8.58887C50.8301 7.73926 51.7412 7.31445 52.8838 7.31445C53.8916 7.31445 54.6416 7.61035 55.1338 8.20215C55.626 8.79395 55.8779 9.67871 55.8896 10.8564V17H53.3496V10.918C53.3496 10.3789 53.2324 9.98926 52.998 9.74902C52.7637 9.50293 52.374 9.37988 51.8291 9.37988C51.1143 9.37988 50.5781 9.68457 50.2207 10.2939V17H47.6807V7.49023H50.0713ZM60.8643 5.15234V7.49023H62.4902V9.35352H60.8643V14.0996C60.8643 14.4512 60.9316 14.7031 61.0664 14.8555C61.2012 15.0078 61.459 15.084 61.8398 15.084C62.1211 15.084 62.3701 15.0635 62.5869 15.0225V16.9473C62.0889 17.0996 61.5762 17.1758 61.0488 17.1758C59.2676 17.1758 58.3594 16.2764 58.3242 14.4775V9.35352H56.9355V7.49023H58.3242V5.15234H60.8643ZM66.5859 17H64.0371V7.49023H66.5859V17ZM63.8877 5.0293C63.8877 4.64844 64.0137 4.33496 64.2656 4.08887C64.5234 3.84277 64.8721 3.71973 65.3115 3.71973C65.7451 3.71973 66.0908 3.84277 66.3486 4.08887C66.6064 4.33496 66.7354 4.64844 66.7354 5.0293C66.7354 5.41602 66.6035 5.73242 66.3398 5.97852C66.082 6.22461 65.7393 6.34766 65.3115 6.34766C64.8838 6.34766 64.5381 6.22461 64.2744 5.97852C64.0166 5.73242 63.8877 5.41602 63.8877 5.0293ZM73.8369 14.3721C73.8369 14.0615 73.6816 13.8184 73.3711 13.6426C73.0664 13.4609 72.5742 13.2998 71.8945 13.1592C69.6328 12.6846 68.502 11.7236 68.502 10.2764C68.502 9.43262 68.8506 8.72949 69.5479 8.16699C70.251 7.59863 71.168 7.31445 72.2988 7.31445C73.5059 7.31445 74.4697 7.59863 75.1904 8.16699C75.917 8.73535 76.2803 9.47363 76.2803 10.3818H73.7402C73.7402 10.0186 73.623 9.71973 73.3887 9.48535C73.1543 9.24512 72.7881 9.125 72.29 9.125C71.8623 9.125 71.5312 9.22168 71.2969 9.41504C71.0625 9.6084 70.9453 9.85449 70.9453 10.1533C70.9453 10.4346 71.0771 10.6631 71.3408 10.8389C71.6104 11.0088 72.0615 11.1582 72.6943 11.2871C73.3271 11.4102 73.8604 11.5508 74.2939 11.709C75.6357 12.2012 76.3066 13.0537 76.3066 14.2666C76.3066 15.1338 75.9346 15.8369 75.1904 16.376C74.4463 16.9092 73.4854 17.1758 72.3076 17.1758C71.5107 17.1758 70.8018 17.0352 70.1807 16.7539C69.5654 16.4668 69.082 16.0771 68.7305 15.585C68.3789 15.0869 68.2031 14.5508 68.2031 13.9766H70.6113C70.6348 14.4277 70.8018 14.7734 71.1123 15.0137C71.4229 15.2539 71.8389 15.374 72.3604 15.374C72.8467 15.374 73.2129 15.2832 73.459 15.1016C73.7109 14.9141 73.8369 14.6709 73.8369 14.3721Z" fill="black"/>
</svg>
