<svg width="77" height="143" viewBox="0 0 77 143" fill="none" xmlns="http://www.w3.org/2000/svg">
<path d="M50.541 49.5898C50.0996 50.0234 49.584 50.2402 48.9941 50.2402C48.2402 50.2402 47.6367 49.9824 47.1836 49.4668C46.7305 48.9473 46.5039 48.248 46.5039 47.3691C46.5039 46.8105 46.625 46.2988 46.8672 45.834C47.1133 45.3652 47.4551 45.002 47.8926 44.7441C48.3301 44.4824 48.8223 44.3516 49.3691 44.3516C49.9316 44.3516 50.4316 44.4922 50.8691 44.7734C51.3066 45.0547 51.6465 45.459 51.8887 45.9863C52.1309 46.5137 52.2539 47.1172 52.2578 47.7969V48.4238C52.2578 49.8457 51.9043 50.9629 51.1973 51.7754C50.4902 52.5879 49.4883 53.0215 48.1914 53.0762L47.7754 53.082V51.6699L48.1504 51.6641C49.623 51.5977 50.4199 50.9062 50.541 49.5898ZM49.4102 48.9453C49.6836 48.9453 49.918 48.875 50.1133 48.7344C50.3125 48.5938 50.4629 48.4238 50.5645 48.2246V47.5273C50.5645 46.9531 50.4551 46.5078 50.2363 46.1914C50.0176 45.875 49.7246 45.7168 49.3574 45.7168C49.0176 45.7168 48.7383 45.873 48.5195 46.1855C48.3008 46.4941 48.1914 46.8828 48.1914 47.3516C48.1914 47.8164 48.2969 48.1992 48.5078 48.5C48.7227 48.7969 49.0234 48.9453 49.4102 48.9453ZM53.7227 48.8047L54.2148 44.4688H58.9961V45.8809H55.6035L55.3926 47.7148C55.7949 47.5 56.2227 47.3926 56.6758 47.3926C57.4883 47.3926 58.125 47.6445 58.5859 48.1484C59.0469 48.6523 59.2773 49.3574 59.2773 50.2637C59.2773 50.8145 59.1602 51.3086 58.9258 51.7461C58.6953 52.1797 58.3633 52.5176 57.9297 52.7598C57.4961 52.998 56.9844 53.1172 56.3945 53.1172C55.8789 53.1172 55.4004 53.0137 54.959 52.8066C54.5176 52.5957 54.168 52.3008 53.9102 51.9219C53.6562 51.543 53.5215 51.1113 53.5059 50.627H55.1816C55.2168 50.9824 55.3398 51.2598 55.5508 51.459C55.7656 51.6543 56.0449 51.752 56.3887 51.752C56.7715 51.752 57.0664 51.6152 57.2734 51.3418C57.4805 51.0645 57.584 50.6738 57.584 50.1699C57.584 49.6855 57.4648 49.3145 57.2266 49.0566C56.9883 48.7988 56.6504 48.6699 56.2129 48.6699C55.8105 48.6699 55.4844 48.7754 55.2344 48.9863L55.0703 49.1387L53.7227 48.8047ZM60.3379 46.1094C60.3379 45.5859 60.5078 45.1621 60.8477 44.8379C61.1875 44.5098 61.6328 44.3457 62.1836 44.3457C62.7422 44.3457 63.1914 44.5078 63.5312 44.832C63.8711 45.1523 64.041 45.5879 64.041 46.1387V46.5605C64.041 47.0879 63.8711 47.5117 63.5312 47.832C63.1914 48.1523 62.7461 48.3125 62.1953 48.3125C61.6406 48.3125 61.1914 48.1523 60.8477 47.832C60.5078 47.5078 60.3379 47.0723 60.3379 46.5254V46.1094ZM61.4629 46.5605C61.4629 46.7949 61.5293 46.9844 61.6621 47.1289C61.7988 47.2695 61.9766 47.3398 62.1953 47.3398C62.4141 47.3398 62.5879 47.2676 62.7168 47.123C62.8457 46.9785 62.9102 46.7852 62.9102 46.543V46.1094C62.9102 45.875 62.8457 45.6855 62.7168 45.541C62.5879 45.3965 62.4102 45.3242 62.1836 45.3242C61.9688 45.3242 61.7949 45.3965 61.6621 45.541C61.5293 45.6816 61.4629 45.8789 61.4629 46.1328V46.5605ZM64.416 50.9082C64.416 50.3809 64.5879 49.957 64.9316 49.6367C65.2754 49.3125 65.7207 49.1504 66.2676 49.1504C66.8223 49.1504 67.2695 49.3105 67.6094 49.6309C67.9531 49.9473 68.125 50.3848 68.125 50.9434V51.3652C68.125 51.8887 67.957 52.3125 67.6211 52.6367C67.2852 52.957 66.8379 53.1172 66.2793 53.1172C65.7168 53.1172 65.2656 52.9551 64.9258 52.6309C64.5859 52.3066 64.416 51.877 64.416 51.3418V50.9082ZM65.541 51.3652C65.541 51.5801 65.6113 51.7637 65.752 51.916C65.8926 52.0684 66.0684 52.1445 66.2793 52.1445C66.7559 52.1445 66.9941 51.8809 66.9941 51.3535V50.9082C66.9941 50.6738 66.9277 50.4863 66.7949 50.3457C66.6621 50.2012 66.4863 50.1289 66.2676 50.1289C66.0488 50.1289 65.873 50.2012 65.7402 50.3457C65.6074 50.4863 65.541 50.6797 65.541 50.9258V51.3652ZM62.5293 52.3613L61.7031 51.916L65.8691 45.248L66.6953 45.6934L62.5293 52.3613Z" fill="black"/>
<path d="M50.6934 76H49V69.4727L46.9785 70.0996V68.7227L50.5117 67.457H50.6934V76ZM59.2129 72.4727C59.2129 73.6523 58.9688 74.5547 58.4805 75.1797C57.9922 75.8047 57.2773 76.1172 56.3359 76.1172C55.4062 76.1172 54.6953 75.8105 54.2031 75.1973C53.7109 74.584 53.459 73.7051 53.4473 72.5605V70.9902C53.4473 69.7988 53.6934 68.8945 54.1855 68.2773C54.6816 67.6602 55.3945 67.3516 56.3242 67.3516C57.2539 67.3516 57.9648 67.6582 58.457 68.2715C58.9492 68.8809 59.2012 69.7578 59.2129 70.9023V72.4727ZM57.5195 70.75C57.5195 70.043 57.4219 69.5293 57.2266 69.209C57.0352 68.8848 56.7344 68.7227 56.3242 68.7227C55.9258 68.7227 55.6309 68.877 55.4395 69.1855C55.252 69.4902 55.1523 69.9688 55.1406 70.6211V72.6953C55.1406 73.3906 55.2344 73.9082 55.4219 74.248C55.6133 74.584 55.918 74.752 56.3359 74.752C56.75 74.752 57.0488 74.5898 57.2324 74.2656C57.416 73.9414 57.5117 73.4453 57.5195 72.7773V70.75ZM60.3379 69.1094C60.3379 68.5859 60.5078 68.1621 60.8477 67.8379C61.1875 67.5098 61.6328 67.3457 62.1836 67.3457C62.7422 67.3457 63.1914 67.5078 63.5312 67.832C63.8711 68.1523 64.041 68.5879 64.041 69.1387V69.5605C64.041 70.0879 63.8711 70.5117 63.5312 70.832C63.1914 71.1523 62.7461 71.3125 62.1953 71.3125C61.6406 71.3125 61.1914 71.1523 60.8477 70.832C60.5078 70.5078 60.3379 70.0723 60.3379 69.5254V69.1094ZM61.4629 69.5605C61.4629 69.7949 61.5293 69.9844 61.6621 70.1289C61.7988 70.2695 61.9766 70.3398 62.1953 70.3398C62.4141 70.3398 62.5879 70.2676 62.7168 70.123C62.8457 69.9785 62.9102 69.7852 62.9102 69.543V69.1094C62.9102 68.875 62.8457 68.6855 62.7168 68.541C62.5879 68.3965 62.4102 68.3242 62.1836 68.3242C61.9688 68.3242 61.7949 68.3965 61.6621 68.541C61.5293 68.6816 61.4629 68.8789 61.4629 69.1328V69.5605ZM64.416 73.9082C64.416 73.3809 64.5879 72.957 64.9316 72.6367C65.2754 72.3125 65.7207 72.1504 66.2676 72.1504C66.8223 72.1504 67.2695 72.3105 67.6094 72.6309C67.9531 72.9473 68.125 73.3848 68.125 73.9434V74.3652C68.125 74.8887 67.957 75.3125 67.6211 75.6367C67.2852 75.957 66.8379 76.1172 66.2793 76.1172C65.7168 76.1172 65.2656 75.9551 64.9258 75.6309C64.5859 75.3066 64.416 74.877 64.416 74.3418V73.9082ZM65.541 74.3652C65.541 74.5801 65.6113 74.7637 65.752 74.916C65.8926 75.0684 66.0684 75.1445 66.2793 75.1445C66.7559 75.1445 66.9941 74.8809 66.9941 74.3535V73.9082C66.9941 73.6738 66.9277 73.4863 66.7949 73.3457C66.6621 73.2012 66.4863 73.1289 66.2676 73.1289C66.0488 73.1289 65.873 73.2012 65.7402 73.3457C65.6074 73.4863 65.541 73.6797 65.541 73.9258V74.3652ZM62.5293 75.3613L61.7031 74.916L65.8691 68.248L66.6953 68.6934L62.5293 75.3613Z" fill="black"/>
<path d="M46.832 94.8047L47.3242 90.4688H52.1055V91.8809H48.7129L48.502 93.7148C48.9043 93.5 49.332 93.3926 49.7852 93.3926C50.5977 93.3926 51.2344 93.6445 51.6953 94.1484C52.1562 94.6523 52.3867 95.3574 52.3867 96.2637C52.3867 96.8145 52.2695 97.3086 52.0352 97.7461C51.8047 98.1797 51.4727 98.5176 51.0391 98.7598C50.6055 98.998 50.0938 99.1172 49.5039 99.1172C48.9883 99.1172 48.5098 99.0137 48.0684 98.8066C47.627 98.5957 47.2773 98.3008 47.0195 97.9219C46.7656 97.543 46.6309 97.1113 46.6152 96.627H48.291C48.3262 96.9824 48.4492 97.2598 48.6602 97.459C48.875 97.6543 49.1543 97.752 49.498 97.752C49.8809 97.752 50.1758 97.6152 50.3828 97.3418C50.5898 97.0645 50.6934 96.6738 50.6934 96.1699C50.6934 95.6855 50.5742 95.3145 50.3359 95.0566C50.0977 94.7988 49.7598 94.6699 49.3223 94.6699C48.9199 94.6699 48.5938 94.7754 48.3438 94.9863L48.1797 95.1387L46.832 94.8047ZM53.4473 92.1094C53.4473 91.5859 53.6172 91.1621 53.957 90.8379C54.2969 90.5098 54.7422 90.3457 55.293 90.3457C55.8516 90.3457 56.3008 90.5078 56.6406 90.832C56.9805 91.1523 57.1504 91.5879 57.1504 92.1387V92.5605C57.1504 93.0879 56.9805 93.5117 56.6406 93.832C56.3008 94.1523 55.8555 94.3125 55.3047 94.3125C54.75 94.3125 54.3008 94.1523 53.957 93.832C53.6172 93.5078 53.4473 93.0723 53.4473 92.5254V92.1094ZM54.5723 92.5605C54.5723 92.7949 54.6387 92.9844 54.7715 93.1289C54.9082 93.2695 55.0859 93.3398 55.3047 93.3398C55.5234 93.3398 55.6973 93.2676 55.8262 93.123C55.9551 92.9785 56.0195 92.7852 56.0195 92.543V92.1094C56.0195 91.875 55.9551 91.6855 55.8262 91.541C55.6973 91.3965 55.5195 91.3242 55.293 91.3242C55.0781 91.3242 54.9043 91.3965 54.7715 91.541C54.6387 91.6816 54.5723 91.8789 54.5723 92.1328V92.5605ZM57.5254 96.9082C57.5254 96.3809 57.6973 95.957 58.041 95.6367C58.3848 95.3125 58.8301 95.1504 59.377 95.1504C59.9316 95.1504 60.3789 95.3105 60.7188 95.6309C61.0625 95.9473 61.2344 96.3848 61.2344 96.9434V97.3652C61.2344 97.8887 61.0664 98.3125 60.7305 98.6367C60.3945 98.957 59.9473 99.1172 59.3887 99.1172C58.8262 99.1172 58.375 98.9551 58.0352 98.6309C57.6953 98.3066 57.5254 97.877 57.5254 97.3418V96.9082ZM58.6504 97.3652C58.6504 97.5801 58.7207 97.7637 58.8613 97.916C59.002 98.0684 59.1777 98.1445 59.3887 98.1445C59.8652 98.1445 60.1035 97.8809 60.1035 97.3535V96.9082C60.1035 96.6738 60.0371 96.4863 59.9043 96.3457C59.7715 96.2012 59.5957 96.1289 59.377 96.1289C59.1582 96.1289 58.9824 96.2012 58.8496 96.3457C58.7168 96.4863 58.6504 96.6797 58.6504 96.9258V97.3652ZM55.6387 98.3613L54.8125 97.916L58.9785 91.248L59.8047 91.6934L55.6387 98.3613Z" fill="black"/>
<path d="M50.6934 122H49V115.473L46.9785 116.1V114.723L50.5117 113.457H50.6934V122ZM53.4473 115.109C53.4473 114.586 53.6172 114.162 53.957 113.838C54.2969 113.51 54.7422 113.346 55.293 113.346C55.8516 113.346 56.3008 113.508 56.6406 113.832C56.9805 114.152 57.1504 114.588 57.1504 115.139V115.561C57.1504 116.088 56.9805 116.512 56.6406 116.832C56.3008 117.152 55.8555 117.312 55.3047 117.312C54.75 117.312 54.3008 117.152 53.957 116.832C53.6172 116.508 53.4473 116.072 53.4473 115.525V115.109ZM54.5723 115.561C54.5723 115.795 54.6387 115.984 54.7715 116.129C54.9082 116.27 55.0859 116.34 55.3047 116.34C55.5234 116.34 55.6973 116.268 55.8262 116.123C55.9551 115.979 56.0195 115.785 56.0195 115.543V115.109C56.0195 114.875 55.9551 114.686 55.8262 114.541C55.6973 114.396 55.5195 114.324 55.293 114.324C55.0781 114.324 54.9043 114.396 54.7715 114.541C54.6387 114.682 54.5723 114.879 54.5723 115.133V115.561ZM57.5254 119.908C57.5254 119.381 57.6973 118.957 58.041 118.637C58.3848 118.312 58.8301 118.15 59.377 118.15C59.9316 118.15 60.3789 118.311 60.7188 118.631C61.0625 118.947 61.2344 119.385 61.2344 119.943V120.365C61.2344 120.889 61.0664 121.312 60.7305 121.637C60.3945 121.957 59.9473 122.117 59.3887 122.117C58.8262 122.117 58.375 121.955 58.0352 121.631C57.6953 121.307 57.5254 120.877 57.5254 120.342V119.908ZM58.6504 120.365C58.6504 120.58 58.7207 120.764 58.8613 120.916C59.002 121.068 59.1777 121.145 59.3887 121.145C59.8652 121.145 60.1035 120.881 60.1035 120.354V119.908C60.1035 119.674 60.0371 119.486 59.9043 119.346C59.7715 119.201 59.5957 119.129 59.377 119.129C59.1582 119.129 58.9824 119.201 58.8496 119.346C58.7168 119.486 58.6504 119.68 58.6504 119.926V120.365ZM55.6387 121.361L54.8125 120.916L58.9785 114.248L59.8047 114.693L55.6387 121.361Z" fill="black"/>
<rect x="14" y="27" width="24" height="23" fill="white" stroke="black" stroke-width="2"/>
<rect x="14" y="50" width="24" height="23" fill="#00FF38" stroke="black" stroke-width="2"/>
<rect x="14" y="73" width="24" height="23" fill="#FD7512" stroke="black" stroke-width="2"/>
<rect x="14" y="96" width="24" height="23" fill="#FFF500" stroke="black" stroke-width="2"/>
<rect x="14" y="119" width="24" height="23" fill="#FF0000" stroke="black" stroke-width="2"/>
<path d="M3.7793 12.4912V17H1.14258V4.20312H6.13477C7.0957 4.20312 7.93945 4.37891 8.66602 4.73047C9.39844 5.08203 9.96094 5.58301 10.3535 6.2334C10.7461 6.87793 10.9424 7.61328 10.9424 8.43945C10.9424 9.69336 10.5117 10.6836 9.65039 11.4102C8.79492 12.1309 7.6084 12.4912 6.09082 12.4912H3.7793ZM3.7793 10.3555H6.13477C6.83203 10.3555 7.3623 10.1914 7.72559 9.86328C8.09473 9.53516 8.2793 9.06641 8.2793 8.45703C8.2793 7.83008 8.09473 7.32324 7.72559 6.93652C7.35645 6.5498 6.84668 6.35059 6.19629 6.33887H3.7793V10.3555ZM16.8486 17.1758C15.4541 17.1758 14.3174 16.748 13.4385 15.8926C12.5654 15.0371 12.1289 13.8975 12.1289 12.4736V12.2275C12.1289 11.2725 12.3135 10.4199 12.6826 9.66992C13.0518 8.91406 13.5732 8.33398 14.2471 7.92969C14.9268 7.51953 15.7002 7.31445 16.5674 7.31445C17.8682 7.31445 18.8906 7.72461 19.6348 8.54492C20.3848 9.36523 20.7598 10.5283 20.7598 12.0342V13.0713H14.7041C14.7861 13.6924 15.0322 14.1904 15.4424 14.5654C15.8584 14.9404 16.3828 15.1279 17.0156 15.1279C17.9941 15.1279 18.7588 14.7734 19.3096 14.0645L20.5576 15.4619C20.1768 16.001 19.6611 16.4229 19.0107 16.7275C18.3604 17.0264 17.6396 17.1758 16.8486 17.1758ZM16.5586 9.37109C16.0547 9.37109 15.6445 9.54102 15.3281 9.88086C15.0176 10.2207 14.8184 10.707 14.7305 11.3398H18.2637V11.1377C18.252 10.5752 18.0996 10.1416 17.8066 9.83691C17.5137 9.52637 17.0977 9.37109 16.5586 9.37109ZM27.5537 9.87207C27.208 9.8252 26.9033 9.80176 26.6396 9.80176C25.6787 9.80176 25.0488 10.127 24.75 10.7773V17H22.21V7.49023H24.6094L24.6797 8.62402C25.1895 7.75098 25.8955 7.31445 26.7979 7.31445C27.0791 7.31445 27.3428 7.35254 27.5889 7.42871L27.5537 9.87207ZM32.5635 15.1279C33.0322 15.1279 33.4131 14.999 33.7061 14.7412C33.999 14.4834 34.1514 14.1406 34.1631 13.7129H36.5449C36.5391 14.3574 36.3633 14.9492 36.0176 15.4883C35.6719 16.0215 35.1973 16.4375 34.5938 16.7363C33.9961 17.0293 33.334 17.1758 32.6074 17.1758C31.248 17.1758 30.1758 16.7451 29.3906 15.8838C28.6055 15.0166 28.2129 13.8213 28.2129 12.2979V12.1309C28.2129 10.666 28.6025 9.49707 29.3818 8.62402C30.1611 7.75098 31.2305 7.31445 32.5898 7.31445C33.7793 7.31445 34.7314 7.6543 35.4463 8.33398C36.167 9.00781 36.5332 9.90723 36.5449 11.0322H34.1631C34.1514 10.54 33.999 10.1416 33.7061 9.83691C33.4131 9.52637 33.0264 9.37109 32.5459 9.37109C31.9541 9.37109 31.5059 9.58789 31.2012 10.0215C30.9023 10.4492 30.7529 11.1465 30.7529 12.1133V12.377C30.7529 13.3555 30.9023 14.0586 31.2012 14.4863C31.5 14.9141 31.9541 15.1279 32.5635 15.1279ZM42.3721 17.1758C40.9775 17.1758 39.8408 16.748 38.9619 15.8926C38.0889 15.0371 37.6523 13.8975 37.6523 12.4736V12.2275C37.6523 11.2725 37.8369 10.4199 38.2061 9.66992C38.5752 8.91406 39.0967 8.33398 39.7705 7.92969C40.4502 7.51953 41.2236 7.31445 42.0908 7.31445C43.3916 7.31445 44.4141 7.72461 45.1582 8.54492C45.9082 9.36523 46.2832 10.5283 46.2832 12.0342V13.0713H40.2275C40.3096 13.6924 40.5557 14.1904 40.9658 14.5654C41.3818 14.9404 41.9062 15.1279 42.5391 15.1279C43.5176 15.1279 44.2822 14.7734 44.833 14.0645L46.0811 15.4619C45.7002 16.001 45.1846 16.4229 44.5342 16.7275C43.8838 17.0264 43.1631 17.1758 42.3721 17.1758ZM42.082 9.37109C41.5781 9.37109 41.168 9.54102 40.8516 9.88086C40.541 10.2207 40.3418 10.707 40.2539 11.3398H43.7871V11.1377C43.7754 10.5752 43.623 10.1416 43.3301 9.83691C43.0371 9.52637 42.6211 9.37109 42.082 9.37109ZM50.0713 7.49023L50.1504 8.58887C50.8301 7.73926 51.7412 7.31445 52.8838 7.31445C53.8916 7.31445 54.6416 7.61035 55.1338 8.20215C55.626 8.79395 55.8779 9.67871 55.8896 10.8564V17H53.3496V10.918C53.3496 10.3789 53.2324 9.98926 52.998 9.74902C52.7637 9.50293 52.374 9.37988 51.8291 9.37988C51.1143 9.37988 50.5781 9.68457 50.2207 10.2939V17H47.6807V7.49023H50.0713ZM60.8643 5.15234V7.49023H62.4902V9.35352H60.8643V14.0996C60.8643 14.4512 60.9316 14.7031 61.0664 14.8555C61.2012 15.0078 61.459 15.084 61.8398 15.084C62.1211 15.084 62.3701 15.0635 62.5869 15.0225V16.9473C62.0889 17.0996 61.5762 17.1758 61.0488 17.1758C59.2676 17.1758 58.3594 16.2764 58.3242 14.4775V9.35352H56.9355V7.49023H58.3242V5.15234H60.8643ZM66.5859 17H64.0371V7.49023H66.5859V17ZM63.8877 5.0293C63.8877 4.64844 64.0137 4.33496 64.2656 4.08887C64.5234 3.84277 64.8721 3.71973 65.3115 3.71973C65.7451 3.71973 66.0908 3.84277 66.3486 4.08887C66.6064 4.33496 66.7354 4.64844 66.7354 5.0293C66.7354 5.41602 66.6035 5.73242 66.3398 5.97852C66.082 6.22461 65.7393 6.34766 65.3115 6.34766C64.8838 6.34766 64.5381 6.22461 64.2744 5.97852C64.0166 5.73242 63.8877 5.41602 63.8877 5.0293ZM73.8369 14.3721C73.8369 14.0615 73.6816 13.8184 73.3711 13.6426C73.0664 13.4609 72.5742 13.2998 71.8945 13.1592C69.6328 12.6846 68.502 11.7236 68.502 10.2764C68.502 9.43262 68.8506 8.72949 69.5479 8.16699C70.251 7.59863 71.168 7.31445 72.2988 7.31445C73.5059 7.31445 74.4697 7.59863 75.1904 8.16699C75.917 8.73535 76.2803 9.47363 76.2803 10.3818H73.7402C73.7402 10.0186 73.623 9.71973 73.3887 9.48535C73.1543 9.24512 72.7881 9.125 72.29 9.125C71.8623 9.125 71.5312 9.22168 71.2969 9.41504C71.0625 9.6084 70.9453 9.85449 70.9453 10.1533C70.9453 10.4346 71.0771 10.6631 71.3408 10.8389C71.6104 11.0088 72.0615 11.1582 72.6943 11.2871C73.3271 11.4102 73.8604 11.5508 74.2939 11.709C75.6357 12.2012 76.3066 13.0537 76.3066 14.2666C76.3066 15.1338 75.9346 15.8369 75.1904 16.376C74.4463 16.9092 73.4854 17.1758 72.3076 17.1758C71.5107 17.1758 70.8018 17.0352 70.1807 16.7539C69.5654 16.4668 69.082 16.0771 68.7305 15.585C68.3789 15.0869 68.2031 14.5508 68.2031 13.9766H70.6113C70.6348 14.4277 70.8018 14.7734 71.1123 15.0137C71.4229 15.2539 71.8389 15.374 72.3604 15.374C72.8467 15.374 73.2129 15.2832 73.459 15.1016C73.7109 14.9141 73.8369 14.6709 73.8369 14.3721Z" fill="black"/>
</svg>
